<?xml version="1.0" encoding="utf-8"?>
<!-- Generator: Adobe Illustrator 23.0.0, SVG Export Plug-In . SVG Version: 6.00 Build 0)  -->
<svg version="1.1" id="Layer_1" xmlns="http://www.w3.org/2000/svg" xmlns:xlink="http://www.w3.org/1999/xlink" x="0px" y="0px"
	 viewBox="0 0 61.3 79" style="enable-background:new 0 0 61.3 79;" xml:space="preserve">
<style type="text/css">
	.st0{fill:#AD2F2F;}
</style>
<path class="st0" d="M56.8,14.8C51.2,5.9,41.2,0.2,30.7,0C20.3,0.2,10.3,5.9,4.6,14.7c-5.1,8-6,17.4-2.5,25.9
	c6.4,15.2,18.3,28.4,27.9,38.2c0.2,0.2,0.4,0.3,0.7,0.3s0.5-0.1,0.6-0.3c9.3-9.6,20.9-22.4,27.5-37.3C62.8,32.8,62,23,56.8,14.8z
	 M49.2,29.8c-0.3,0-0.5-0.2-0.5-0.5c0-9.9-8.1-18-18-18c-0.3,0-0.5-0.2-0.5-0.5s0.2-0.5,0.5-0.5c10.5,0,19,8.5,19,19
	C49.7,29.6,49.5,29.8,49.2,29.8z"/>
</svg>
